<svg width="580" height="400" xmlns="http://www.w3.org/2000/svg">
 <!-- Created with Method Draw - http://github.com/duopixel/Method-Draw/ -->

 <g>
  <title>background</title>
  <rect fill="#fff" id="canvas_background" height="402" width="582" y="-1" x="-1"/>
  <g display="none" overflow="visible" y="0" x="0" height="100%" width="100%" id="canvasGrid">
   <rect fill="url(#gridpattern)" stroke-width="0" y="0" x="0" height="100%" width="100%"/>
  </g>
 </g>
 <g>
  <title>Layer 1</title>
  <g stroke="null" transform="rotate(-13.744587898254395 276.83364868164034,216.9999237060546) " id="svg_36">
   <g stroke="null" transform="matrix(1.3158632030046424,0,0,1.0831773535081686,-1653.3034520834694,-1071.1070406688877) " id="svg_5">
    <path stroke-width="8" stroke="null" id="svg_6" fill="#935733" d="m1481.125926,1275.739603c-9.695,-9.695 -9.695,-25.415 0,-35.11l6.259,-6.259c5.733,-5.733 15.028,-5.733 20.761,0l4.602,4.602c2.904,2.904 7.548,3.048 10.662,0.371c1.539,-1.323 3.013,-2.685 4.413,-4.085c38.202,-38.202 4.525,-111.592 4.525,-111.592s-73.39,-33.677 -111.592,4.525c-1.4,1.4 -2.762,2.874 -4.085,4.413c-2.677,3.114 -2.533,7.758 0.371,10.662l4.602,4.602c5.733,5.733 5.733,15.028 0,20.761l-6.259,6.259c-9.695,9.695 -25.415,9.695 -35.11,0l-5.432,-5.432c-2.578,-2.578 -6.597,-3.028 -9.688,-1.095c-7.113,4.446 -13.587,9.488 -19.113,15.013c-34.959,34.959 -25.1,81.78 9.86,116.74s81.78,44.819 116.74,9.859c5.525,-5.525 10.567,-11.999 15.013,-19.113c1.932,-3.092 1.483,-7.11 -1.095,-9.688l-5.434,-5.433z"/>
    <g stroke="null" id="svg_7">
     <path stroke-width="8" stroke="null" id="svg_8" fill="#935733" d="m1382.631926,1176.957603c-0.817,-0.635 -1.608,-1.32 -2.358,-2.071l-5.432,-5.432c-2.578,-2.578 -6.596,-3.028 -9.688,-1.095c-1.52,0.95 -3.004,1.932 -4.462,2.936c6.149,5.475 14.364,7.36 21.94,5.662z"/>
     <path stroke-width="8" stroke="null" id="svg_9" opacity="0.3" fill="#935733" d="m1532.346926,1123.665603c0,0 -0.144,-0.066 -0.403,-0.18l-13.641,13.641c7.396,24.22 15.186,67.226 -11.128,93.54c-0.546,0.546 -1.113,1.082 -1.681,1.616c0.941,0.584 1.835,1.271 2.652,2.087l4.602,4.602c2.904,2.904 7.548,3.048 10.662,0.371c1.539,-1.323 3.013,-2.685 4.413,-4.085c38.201,-38.201 4.524,-111.592 4.524,-111.592z"/>
    </g>
    <g stroke="null" id="svg_10" opacity="0.3">
     <path stroke-width="8" stroke="null" id="svg_11" fill="#935733" d="m1481.125926,1275.739603c-1.977,-1.977 -3.543,-4.206 -4.714,-6.582c-3.999,6.035 -8.437,11.558 -13.241,16.362c-34.959,34.959 -81.78,25.1 -116.74,-9.859c-8.33,-8.33 -15.231,-17.334 -20.444,-26.69c3.962,17.998 14.494,35.724 29.913,51.143c34.959,34.959 81.78,44.819 116.74,9.859c5.525,-5.525 10.567,-11.999 15.013,-19.113c1.932,-3.092 1.483,-7.11 -1.095,-9.688l-5.432,-5.432z"/>
    </g>
    <path stroke-width="8" stroke="null" id="svg_12" fill="#5E4534" d="m1462.162926,1184.329603l9.52,9.52c3.417,3.417 8.957,3.417 12.374,0l119.927,-119.926c3.417,-3.417 3.417,-8.957 0,-12.374l-9.52,-9.52c-3.417,-3.417 -8.957,-3.417 -12.374,0l-119.927,119.926c-3.417,3.417 -3.417,8.957 0,12.374z"/>
    <path stroke-width="8" stroke="null" id="svg_13" opacity="0.3" fill="#5E4534" d="m1603.983926,1061.549603l-1.24,-1.24c-0.178,0.216 -0.366,0.427 -0.568,0.629l-119.926,119.926c-3.417,3.417 -8.957,3.417 -12.375,0l-8.281,-8.281c-2.835,3.437 -2.647,8.531 0.568,11.746l9.52,9.52c3.417,3.417 8.957,3.417 12.374,0l119.928,-119.926c3.417,-3.417 3.417,-8.957 0,-12.374z"/>
    <path stroke-width="8" stroke="null" id="svg_14" fill="#5E4534" d="m1346.460926,1298.644603l10.907,10.907c2.05,2.05 5.374,2.05 7.425,0l21.805,-21.805c2.05,-2.05 2.05,-5.374 0,-7.425l-10.907,-10.907c-2.05,-2.05 -5.374,-2.05 -7.425,0l-21.805,21.805c-2.05,2.051 -2.05,5.375 0,7.425z"/>
    <path stroke-width="8" stroke="null" id="svg_15" opacity="0.3" fill="#5E4534" d="m1385.143926,1278.867603l-20.351,20.351c-2.05,2.05 -5.375,2.05 -7.425,0l-9.453,-9.453l-1.454,1.454c-2.05,2.05 -2.05,5.375 0,7.425l10.907,10.907c2.05,2.05 5.374,2.05 7.425,0l21.805,-21.805c2.05,-2.05 2.05,-5.374 0,-7.425l-1.454,-1.454z"/>
    <path stroke-width="8" stroke="null" id="svg_16" fill="#F9B65F" d="m1389.971926,1248.457603l17.584,17.584c1.519,1.519 3.982,1.519 5.501,0l0.304,-0.304c1.519,-1.519 1.519,-3.982 0,-5.501l-17.584,-17.584c-1.519,-1.519 -3.982,-1.519 -5.501,0l-0.304,0.304c-1.519,1.519 -1.519,3.982 0,5.501z"/>
    <path stroke-width="8" stroke="null" id="svg_17" fill="#794C2B" d="m1583.542926,1091.137603l-18.668,-18.668c-2.805,-2.805 -2.805,-7.353 0,-10.157l23.582,-23.582c5.278,-5.278 13.836,-5.278 19.114,0l9.712,9.712c5.278,5.278 5.278,13.836 0,19.114l-23.582,23.582c-2.806,2.804 -7.353,2.804 -10.158,-0.001z"/>
    <path stroke-width="8" stroke="null" id="svg_18" opacity="0.3" fill="#794C2B" d="m1617.530926,1048.717603c-0.589,2.236 -1.746,4.353 -3.499,6.106l-23.582,23.583c-2.805,2.805 -7.352,2.805 -10.157,0l-15.739,-15.739c-2.472,2.821 -2.37,7.112 0.321,9.803l18.668,18.668c2.805,2.805 7.353,2.805 10.157,0l23.582,-23.582c5.19,-5.191 5.265,-13.544 0.249,-18.839z"/>
    <path stroke-width="8" stroke="null" id="svg_19" fill="#5E4534" d="m1376.014926,1204.465603c-1.355,-1.355 -2.097,-2.548 -2.164,-2.656c-0.912,-1.491 -0.442,-3.44 1.049,-4.352c1.492,-0.912 3.443,-0.442 4.352,1.049c0.013,0.016 2.173,3.391 5.376,3.714c2.232,0.225 4.714,-1.073 7.378,-3.859c4.372,-4.574 8.884,-6.702 13.408,-6.328c6.193,0.514 9.76,5.656 9.907,5.874c0.984,1.446 0.61,3.416 -0.835,4.399c-1.439,0.979 -3.391,0.614 -4.386,-0.817c-0.071,-0.098 -2.131,-2.916 -5.256,-3.15c-2.514,-0.187 -5.293,1.293 -8.262,4.396c-4.106,4.294 -8.367,6.238 -12.664,5.776c-3.52,-0.377 -6.197,-2.34 -7.903,-4.046z"/>
    <path stroke-width="8" stroke="null" id="svg_20" fill="#5E4534" d="m1451.546926,1279.998603c1.355,1.355 2.548,2.097 2.656,2.164c1.491,0.912 3.44,0.442 4.352,-1.049c0.912,-1.492 0.442,-3.443 -1.049,-4.352c-0.016,-0.013 -3.392,-2.173 -3.714,-5.376c-0.225,-2.232 1.073,-4.714 3.859,-7.378c4.573,-4.372 6.702,-8.884 6.328,-13.408c-0.514,-6.193 -5.656,-9.76 -5.874,-9.907c-1.446,-0.984 -3.416,-0.61 -4.399,0.835c-0.979,1.439 -0.614,3.392 0.817,4.386c0.098,0.071 2.916,2.131 3.15,5.256c0.187,2.514 -1.293,5.293 -4.396,8.262c-4.294,4.106 -6.238,8.367 -5.776,12.664c0.377,3.519 2.34,6.197 4.046,7.903z"/>
   </g>
   <g stroke="null" transform="matrix(1.3158632030046424,0,0,1.0831773535081686,-1653.3034520834694,-1071.1070406688877) " id="svg_21"/>
   <g stroke="null" transform="matrix(1.3158632030046424,0,0,1.0831773535081686,-1653.3034520834694,-1071.1070406688877) " id="svg_22"/>
   <g stroke="null" transform="matrix(1.3158632030046424,0,0,1.0831773535081686,-1653.3034520834694,-1071.1070406688877) " id="svg_23"/>
   <g stroke="null" transform="matrix(1.3158632030046424,0,0,1.0831773535081686,-1653.3034520834694,-1071.1070406688877) " id="svg_24"/>
   <g stroke="null" transform="matrix(1.3158632030046424,0,0,1.0831773535081686,-1653.3034520834694,-1071.1070406688877) " id="svg_25"/>
   <g stroke="null" transform="matrix(1.3158632030046424,0,0,1.0831773535081686,-1653.3034520834694,-1071.1070406688877) " id="svg_26"/>
   <g stroke="null" transform="matrix(1.3158632030046424,0,0,1.0831773535081686,-1653.3034520834694,-1071.1070406688877) " id="svg_27"/>
   <g stroke="null" transform="matrix(1.3158632030046424,0,0,1.0831773535081686,-1653.3034520834694,-1071.1070406688877) " id="svg_28"/>
   <g stroke="null" transform="matrix(1.3158632030046424,0,0,1.0831773535081686,-1653.3034520834694,-1071.1070406688877) " id="svg_29"/>
   <g stroke="null" transform="matrix(1.3158632030046424,0,0,1.0831773535081686,-1653.3034520834694,-1071.1070406688877) " id="svg_30"/>
   <g stroke="null" transform="matrix(1.3158632030046424,0,0,1.0831773535081686,-1653.3034520834694,-1071.1070406688877) " id="svg_31"/>
   <g stroke="null" transform="matrix(1.3158632030046424,0,0,1.0831773535081686,-1653.3034520834694,-1071.1070406688877) " id="svg_32"/>
   <g stroke="null" transform="matrix(1.3158632030046424,0,0,1.0831773535081686,-1653.3034520834694,-1071.1070406688877) " id="svg_33"/>
   <g stroke="null" transform="matrix(1.3158632030046424,0,0,1.0831773535081686,-1653.3034520834694,-1071.1070406688877) " id="svg_34"/>
   <g stroke="null" transform="matrix(1.3158632030046424,0,0,1.0831773535081686,-1653.3034520834694,-1071.1070406688877) " id="svg_35"/>
  </g>
  <line stroke-linecap="undefined" stroke-linejoin="undefined" id="svg_38" y2="338.665435" x2="179.001004" y1="64.667888" x1="373.665928" stroke-width="1.5" stroke="#000" fill="none"/>
  <line stroke-linecap="undefined" stroke-linejoin="undefined" id="svg_43" y2="337.998774" x2="184.334289" y1="69.334513" x1="380.332535" stroke-width="1.5" stroke="#000" fill="none"/>
  <line stroke-linecap="undefined" stroke-linejoin="undefined" id="svg_45" y2="339.998756" x2="187.667593" y1="72.001155" x1="388.332463" stroke-width="1.5" stroke="#000" fill="none"/>
  <line stroke-linecap="undefined" stroke-linejoin="undefined" id="svg_46" y2="342.665399" x2="191.000896" y1="76.66778" x1="394.33241" stroke-width="1.5" stroke="#000" fill="none"/>
  <line stroke-linecap="undefined" stroke-linejoin="undefined" id="svg_50" y2="63.999291" x2="372.995918" y1="76.33249" x1="397.662315" stroke-width="1.5" stroke="#000" fill="none"/>
  <line stroke-linecap="undefined" stroke-linejoin="undefined" id="svg_51" y2="64.665951" x2="371.995929" y1="78.332468" x1="399.662293" stroke-width="1.5" stroke="#000" fill="none"/>
  <line stroke-linecap="undefined" stroke-linejoin="undefined" id="svg_52" y2="63.665961" x2="375.329226" y1="75.3325" x1="399.662293" stroke-width="1.5" stroke="#000" fill="none"/>
  <line stroke-linecap="undefined" stroke-linejoin="undefined" id="svg_53" y2="64.332621" x2="379.995841" y1="72.332533" x1="396.995655" stroke-width="1.5" stroke="#000" fill="none"/>
  <line stroke-linecap="undefined" stroke-linejoin="undefined" id="svg_54" y2="64.665951" x2="384.662457" y1="69.999225" x1="395.995666" stroke-width="1.5" stroke="#000" fill="none"/>
  <line stroke-linecap="undefined" stroke-linejoin="undefined" id="svg_55" y2="344.996216" x2="194.331207" y1="334.996325" x1="176.998063" fill-opacity="null" stroke-opacity="null" stroke-width="7.5" stroke="#000" fill="none"/>
  <line stroke-linecap="undefined" stroke-linejoin="undefined" id="svg_56" y2="346.662864" x2="188.997932" y1="339.329611" x1="176.998063" fill-opacity="null" stroke-opacity="null" stroke-width="7.5" stroke="#000" fill="none"/>
  <line stroke-linecap="undefined" stroke-linejoin="undefined" id="svg_57" y2="346.662864" x2="184.331316" y1="342.662908" x1="178.331382" fill-opacity="null" stroke-opacity="null" stroke-width="7.5" stroke="#000" fill="none"/>
  <line stroke-linecap="undefined" stroke-linejoin="undefined" id="svg_58" y2="62.332643" x2="373.329248" y1="77.999138" x1="399.328963" fill-opacity="null" stroke-opacity="null" stroke-width="7.5" stroke="#000" fill="none"/>
  <line stroke-linecap="undefined" stroke-linejoin="undefined" id="svg_59" y2="62.332643" x2="376.995874" y1="74.999171" x1="397.662315" fill-opacity="null" stroke-opacity="null" stroke-width="7.5" stroke="#000" fill="none"/>
  <line stroke-linecap="undefined" stroke-linejoin="undefined" id="svg_60" y2="61.999313" x2="379.995841" y1="71.332544" x1="394.995677" fill-opacity="null" stroke-opacity="null" stroke-width="7.5" stroke="#000" fill="none"/>
  <line stroke-linecap="undefined" stroke-linejoin="undefined" id="svg_61" y2="60.665994" x2="384.662457" y1="66.999258" x1="393.995688" fill-opacity="null" stroke-opacity="null" stroke-width="6.5" stroke="#000" fill="none"/>
 </g>
</svg>